HIERARCHY
ROOT joint_Root
{
	OFFSET 0.0 0.0 0.0
	CHANNELS 6 Xposition Yposition Zposition Zrotation Xrotation Yrotation 
	JOINT Hips
	{
		OFFSET -17.1583 93.1646 452.98
		CHANNELS 6 Xposition Yposition Zposition Zrotation Xrotation Yrotation 
		JOINT Spine
		{
			OFFSET 15.7357 0.0 0.0
			CHANNELS 6 Xposition Yposition Zposition Zrotation Xrotation Yrotation 
			JOINT Chest
			{
				OFFSET 8.98455 -0.406207 0.0
				CHANNELS 6 Xposition Yposition Zposition Zrotation Xrotation Yrotation 
				JOINT Neck
				{
					OFFSET 16.3773 0.0 0.0
					CHANNELS 6 Xposition Yposition Zposition Zrotation Xrotation Yrotation 
					JOINT Head
					{
						OFFSET 6.45672 0.0 0.0
						CHANNELS 6 Xposition Yposition Zposition Zrotation Xrotation Yrotation 
						End Site
						{
							OFFSET 0.0 0.0 0.0
						}
					}
				}
				JOINT Shoulder_L
				{
					OFFSET 12.9942 -0.242716 4.98039
					CHANNELS 6 Xposition Yposition Zposition Zrotation Xrotation Yrotation 
					JOINT UpperArm_L
					{
						OFFSET 5.34809 0.0 0.0
						CHANNELS 6 Xposition Yposition Zposition Zrotation Xrotation Yrotation 
						JOINT LowerArm_L
						{
							OFFSET 24.3286 1.87007e-05 0.0
							CHANNELS 6 Xposition Yposition Zposition Zrotation Xrotation Yrotation 
							JOINT Hand_L
							{
								OFFSET 22.2916 0.0 0.0
								CHANNELS 6 Xposition Yposition Zposition Zrotation Xrotation Yrotation 
								End Site
								{
									OFFSET 0.0 0.0 0.0
								}
							}
						}
					}
				}
				JOINT Shoulder_R
				{
					OFFSET 12.9945 -0.242716 -4.98039
					CHANNELS 6 Xposition Yposition Zposition Zrotation Xrotation Yrotation 
					JOINT UpperArm_R
					{
						OFFSET -5.34813 0.0 0.0
						CHANNELS 6 Xposition Yposition Zposition Zrotation Xrotation Yrotation 
						JOINT LowerArm_R
						{
							OFFSET -24.3289 0.000322201 0.0
							CHANNELS 6 Xposition Yposition Zposition Zrotation Xrotation Yrotation 
							JOINT Hand_R
							{
								OFFSET -22.2915 -0.000108084 0.0
								CHANNELS 6 Xposition Yposition Zposition Zrotation Xrotation Yrotation 
								End Site
								{
									OFFSET 0.0 0.0 0.0
								}
							}
						}
					}
				}
			}
		}
		JOINT UpperLeg_L
		{
			OFFSET -2.19248 -6.46944 0.0
			CHANNELS 6 Xposition Yposition Zposition Zrotation Xrotation Yrotation 
			JOINT LowerLeg_L
			{
				OFFSET 39.0811 0.0 -1.23785e-05
				CHANNELS 6 Xposition Yposition Zposition Zrotation Xrotation Yrotation 
				JOINT Foot_L
				{
					OFFSET 40.9854 0.0 -1.26872e-05
					CHANNELS 6 Xposition Yposition Zposition Zrotation Xrotation Yrotation 
					JOINT Toes_L
					{
						OFFSET 11.7543 0.0 0.0
						CHANNELS 6 Xposition Yposition Zposition Zrotation Xrotation Yrotation 
						End Site
						{
							OFFSET 0.0 0.0 0.0
						}
					}
				}
			}
		}
		JOINT UpperLeg_R
		{
			OFFSET -2.19251 6.46944 0.0
			CHANNELS 6 Xposition Yposition Zposition Zrotation Xrotation Yrotation 
			JOINT LowerLeg_R
			{
				OFFSET -39.0811 -0.00228153 -0.0401928
				CHANNELS 6 Xposition Yposition Zposition Zrotation Xrotation Yrotation 
				JOINT Foot_R
				{
					OFFSET -40.9854 0.0 0.0
					CHANNELS 6 Xposition Yposition Zposition Zrotation Xrotation Yrotation 
					JOINT Toes_R
					{
						OFFSET -11.7543 0.0 0.0
						CHANNELS 6 Xposition Yposition Zposition Zrotation Xrotation Yrotation 
						End Site
						{
							OFFSET 0.0 0.0 0.0
						}
					}
				}
			}
		}
	}
}
MOTION
Frames:	9
Frame Time:	0.0333333
0.000000 0.000000 0.000000 0.000000 0.000000 -0.000000 189.710000 91.871200 -116.985000 85.661300 3.120340 3.537410 15.735700 0.000005 -0.000001 83.267000 85.149500 -81.345000 8.984550 -0.406207 -0.000000 1.892110 -1.235120 3.861000 16.377300 -0.000001 -0.000001 3.776180 0.855446 0.120843 6.456720 -0.000001 -0.000000 -4.945450 0.715633 1.649170 12.994200 -0.242716 4.980390 -93.038400 8.663710 -70.588800 5.348090 -0.000007 -0.000001 -69.722100 -13.119500 6.665040 24.328600 0.000019 0.000005 7.884070 22.422300 -19.953200 22.291600 -0.000001 0.000005 56.522000 4.357240 18.900200 12.994500 -0.242716 -4.980390 88.426900 3.810710 -67.548600 -5.348130 -0.000001 -0.000004 -72.287800 21.885600 -11.299900 -24.328900 0.000322 -0.000009 0.828783 1.639370 -26.840500 -22.291500 -0.000108 -0.000004 46.135500 5.529710 -7.781990 -2.192480 -6.469440 -0.000000 -176.343000 -0.479924 -18.921500 39.081100 -0.000007 -0.000012 -0.067775 0.025901 69.089200 40.985400 -0.000006 -0.000013 -4.094590 -6.855700 -54.513900 11.754300 -0.000000 0.000003 0.002486 0.085658 -13.102900 -2.192510 6.469440 -0.000001 -171.745000 1.818080 177.198000 -39.081100 -0.002282 -0.040193 -0.000233 0.007266 25.996000 -40.985400 0.000008 0.000006 -0.195575 0.499032 -74.359300 -11.754300 -0.000006 -0.000006 -0.004665 0.225852 -7.406350
0.000000 0.000000 0.000000 0.000000 0.000000 -0.000000 190.181000 92.372400 -114.597000 87.152200 2.976510 3.239470 15.735700 0.000005 -0.000001 87.779900 85.264600 -86.523700 8.984550 -0.406207 -0.000000 1.703650 -0.433098 2.516640 16.377300 -0.000001 -0.000001 4.552440 0.538904 0.362225 6.456720 -0.000001 -0.000000 -4.453690 -0.210561 2.128530 12.994200 -0.242716 4.980390 -93.098100 8.557590 -70.011800 5.348090 -0.000007 -0.000001 -66.066200 -17.113100 8.823960 24.328600 0.000019 0.000005 7.168070 20.579900 -19.686000 22.291600 -0.000001 0.000005 56.861900 4.330760 19.314700 12.994500 -0.242716 -4.980390 88.551900 3.526090 -67.656000 -5.348130 -0.000001 -0.000004 -72.105800 23.608400 -12.555800 -24.328900 0.000322 -0.000009 1.141580 1.820870 -32.112400 -22.291500 -0.000108 -0.000004 45.968200 5.523280 -7.500460 -2.192480 -6.469440 -0.000000 -178.477000 0.984829 -22.184100 39.081100 -0.000007 -0.000012 -0.090366 0.042318 64.909600 40.985400 -0.000006 -0.000013 -3.869520 -9.672260 -58.812500 11.754300 -0.000000 0.000003 0.002475 0.089659 -12.940700 -2.192510 6.469440 -0.000001 -173.712000 2.393500 -179.652000 -39.081100 -0.002282 -0.040193 -0.000112 0.008220 22.640700 -40.985400 0.000008 0.000006 -0.296433 1.475520 -73.607400 -11.754300 -0.000006 -0.000006 -0.003786 0.216863 -7.772480
0.000000 0.000000 0.000000 0.000000 0.000000 -0.000000 190.552000 92.752700 -112.301000 88.142600 2.975800 2.878770 15.735700 0.000005 -0.000001 91.569600 85.324900 -90.748100 8.984550 -0.406207 -0.000000 1.579770 0.211644 1.638570 16.377300 -0.000001 -0.000001 5.187470 0.282888 0.346269 6.456720 -0.000001 -0.000000 -4.141360 -1.051170 2.345530 12.994200 -0.242716 4.980390 -93.171900 8.486180 -69.417800 5.348090 -0.000007 -0.000001 -62.600600 -20.319600 10.516700 24.328600 0.000019 0.000005 6.971370 19.704500 -19.933500 22.291600 -0.000001 0.000005 57.013400 4.324010 19.419700 12.994500 -0.242716 -4.980390 88.603000 3.421400 -67.772800 -5.348130 -0.000001 -0.000004 -71.579800 24.563600 -13.741300 -24.328900 0.000322 -0.000009 1.430100 1.899210 -37.011100 -22.291500 -0.000108 -0.000004 45.140200 5.518060 -7.281880 -2.192480 -6.469440 -0.000000 -179.508000 2.720200 -24.314300 39.081100 -0.000007 -0.000012 -0.082567 0.052272 57.664900 40.985400 -0.000006 -0.000013 -3.404520 -10.583300 -60.433000 11.754300 -0.000000 0.000003 0.002487 0.083551 -13.188300 -2.192510 6.469440 -0.000001 -175.314000 3.734890 -177.104000 -39.081100 -0.002282 -0.040193 -0.002938 0.017171 20.027400 -40.985400 0.000008 0.000006 -0.968970 3.014520 -72.321300 -11.754300 -0.000006 -0.000006 -0.001273 0.186886 -8.992030
0.000000 0.000000 0.000000 0.000000 0.000000 -0.000000 190.897000 92.997900 -110.067000 88.689200 2.889090 2.391980 15.735700 0.000005 -0.000001 95.387800 85.370200 -94.768100 8.984550 -0.406207 -0.000000 1.448620 0.834842 1.227870 16.377300 -0.000001 -0.000001 5.667770 0.143852 0.226539 6.456720 -0.000001 -0.000000 -4.010470 -1.614270 2.112360 12.994200 -0.242716 4.980390 -93.241000 8.474800 -68.981500 5.348090 -0.000007 -0.000001 -59.745900 -22.111200 11.801700 24.328600 0.000019 0.000005 6.742010 18.598800 -20.337400 22.291600 -0.000001 0.000005 56.921400 4.340310 19.165300 12.994500 -0.242716 -4.980390 88.613300 3.417570 -67.899300 -5.348130 -0.000001 -0.000004 -70.648300 25.250600 -15.027200 -24.328900 0.000322 -0.000009 1.995940 2.295180 -41.040200 -22.291500 -0.000108 -0.000004 44.862500 5.519860 -7.356130 -2.192480 -6.469440 -0.000000 -179.569000 4.047740 -25.308400 39.081100 -0.000007 -0.000012 -0.049016 0.044285 47.904600 40.985400 -0.000006 -0.000013 -3.694960 -9.820110 -60.635600 11.754300 -0.000000 0.000003 0.002419 0.097708 -12.614400 -2.192510 6.469440 -0.000001 -176.417000 4.937810 -175.242000 -39.081100 -0.002282 -0.040193 -0.001887 0.015762 18.296300 -40.985400 0.000008 0.000006 -0.772051 4.356400 -71.194000 -11.754300 -0.000006 -0.000006 0.000176 0.164649 -9.895390
0.000000 0.000000 0.000000 0.000000 0.000000 -0.000000 191.207000 93.047000 -107.765000 88.869500 2.635050 1.924770 15.735700 0.000005 -0.000001 98.657500 85.375200 -98.082800 8.984550 -0.406207 -0.000000 1.372110 1.359590 1.132160 16.377300 -0.000001 -0.000001 5.881900 0.112847 0.051888 6.456720 -0.000001 -0.000000 -3.982360 -1.934550 1.752750 12.994200 -0.242716 4.980390 -93.272100 8.399250 -68.624900 5.348090 -0.000007 -0.000001 -57.629900 -23.281700 12.768100 24.328600 0.000019 0.000005 6.938300 18.543600 -20.939000 22.291600 -0.000001 0.000005 56.497000 4.355090 18.934000 12.994500 -0.242716 -4.980390 88.600200 3.489710 -68.126400 -5.348130 -0.000001 -0.000004 -69.692800 25.733100 -16.273800 -24.328900 0.000322 -0.000009 2.541170 2.634980 -44.002900 -22.291500 -0.000108 -0.000004 45.397100 5.517790 -7.268280 -2.192480 -6.469440 -0.000000 -179.035000 4.590480 -24.976400 39.081100 -0.000007 -0.000012 -0.016344 0.022436 36.074500 40.985400 -0.000006 -0.000013 -4.385370 -7.880250 -59.447500 11.754300 -0.000000 0.000003 0.002407 0.098858 -12.567800 -2.192510 6.469440 -0.000001 -176.993000 5.524690 -173.803000 -39.081100 -0.002282 -0.040193 -0.000453 0.012077 17.374500 -40.985400 0.000008 0.000006 -0.512990 4.974940 -70.613500 -11.754300 -0.000006 -0.000006 0.001197 0.144246 -10.723500
0.000000 0.000000 0.000000 0.000000 0.000000 -0.000000 191.497000 92.867000 -105.305000 88.902800 2.433100 1.469740 15.735700 0.000005 -0.000001 101.009000 85.401300 -100.432000 8.984550 -0.406207 -0.000000 1.254340 1.722710 1.134200 16.377300 -0.000001 -0.000001 5.938340 0.201531 -0.189313 6.456720 -0.000001 -0.000000 -4.030920 -2.133460 1.584000 12.994200 -0.242716 4.980390 -93.276800 8.330810 -68.438600 5.348090 -0.000007 -0.000001 -56.162500 -23.517500 13.551500 24.328600 0.000019 0.000005 7.047040 18.124300 -21.672100 22.291600 -0.000001 0.000005 56.441900 4.358270 18.884000 12.994500 -0.242716 -4.980390 88.583100 3.581820 -68.401000 -5.348130 -0.000001 -0.000004 -69.061800 25.965700 -17.131200 -24.328900 0.000322 -0.000009 2.553370 2.484390 -45.825600 -22.291500 -0.000108 -0.000004 45.216600 5.515840 -7.185370 -2.192480 -6.469440 -0.000000 -178.538000 4.213960 -23.742900 39.081100 -0.000007 -0.000012 -0.000315 0.000715 23.761900 40.985400 -0.000006 -0.000013 -4.286680 -4.391550 -58.390800 11.754300 -0.000000 0.000003 0.002371 0.101933 -12.443100 -2.192510 6.469440 -0.000001 -177.340000 5.747530 -172.713000 -39.081100 -0.002282 -0.040193 -0.000516 0.012225 17.445000 -40.985400 0.000008 0.000006 -0.281455 5.298100 -70.506900 -11.754300 -0.000006 -0.000006 0.002165 0.114081 -11.947000
0.000000 0.000000 0.000000 0.000000 0.000000 -0.000000 191.788000 92.376900 -102.549000 88.756400 2.332160 1.170060 15.735700 0.000005 -0.000001 102.557000 85.405200 -101.914000 8.984550 -0.406207 -0.000000 1.193960 1.960140 1.263490 16.377300 -0.000001 -0.000001 5.747720 0.200946 -0.343600 6.456720 -0.000001 -0.000000 -4.076080 -2.255940 1.382130 12.994200 -0.242716 4.980390 -93.310700 8.369400 -68.326100 5.348090 -0.000007 -0.000001 -55.341500 -23.420800 13.778300 24.328600 0.000019 0.000005 7.075140 17.831100 -22.063900 22.291600 -0.000001 0.000005 56.332600 4.358930 18.873600 12.994500 -0.242716 -4.980390 88.570400 3.654400 -68.617100 -5.348130 -0.000001 -0.000004 -68.831800 26.114500 -17.649400 -24.328900 0.000322 -0.000009 2.571220 2.462700 -46.276200 -22.291500 -0.000108 -0.000004 45.184900 5.518860 -7.313600 -2.192480 -6.469440 -0.000000 -178.440000 2.451380 -21.966200 39.081100 -0.000007 -0.000012 0.003364 -0.014951 12.680800 40.985400 -0.000006 -0.000013 -4.662320 1.253110 -59.000400 11.754300 -0.000000 0.000003 0.002402 0.099367 -12.547200 -2.192510 6.469440 -0.000001 -177.440000 5.656160 -171.953000 -39.081100 -0.002282 -0.040193 -0.003486 0.019912 18.878600 -40.985400 0.000008 0.000006 0.003372 5.333590 -70.996100 -11.754300 -0.000006 -0.000006 0.002415 0.069400 -13.758500
0.000000 0.000000 0.000000 0.000000 0.000000 -0.000000 192.153000 91.798000 -99.428200 88.622700 2.213270 1.021090 15.735700 0.000005 -0.000001 104.255000 85.391600 -103.575000 8.984550 -0.406207 -0.000000 1.155310 2.229320 1.335400 16.377300 -0.000001 -0.000001 5.555630 0.160422 -0.364620 6.456720 -0.000001 -0.000000 -4.287430 -2.371160 1.279110 12.994200 -0.242716 4.980390 -93.391500 8.544250 -68.254500 5.348090 -0.000007 -0.000001 -55.127800 -22.900400 13.311000 24.328600 0.000019 0.000005 7.053510 17.853200 -21.978400 22.291600 -0.000001 0.000005 56.303200 4.369600 18.705500 12.994500 -0.242716 -4.980390 88.543800 3.760460 -68.813400 -5.348130 -0.000001 -0.000004 -69.052100 26.156500 -17.570000 -24.328900 0.000322 -0.000009 2.618270 2.579180 -45.474000 -22.291500 -0.000108 -0.000004 45.297200 5.521480 -7.425640 -2.192480 -6.469440 -0.000000 -178.844000 -0.052569 -20.668300 39.081100 -0.000007 -0.000012 0.000520 -0.005427 5.479330 40.985400 -0.000006 -0.000013 -6.456770 6.953850 -60.413300 11.754300 -0.000000 0.000003 0.002380 0.101244 -12.471100 -2.192510 6.469440 -0.000001 -177.669000 5.544180 -171.068000 -39.081100 -0.002282 -0.040193 -0.006916 0.026987 20.770900 -40.985400 0.000008 0.000006 0.201940 5.471450 -71.402500 -11.754300 -0.000006 -0.000006 0.001206 0.023648 -15.613900
0.000000 0.000000 0.000000 0.000000 0.000000 -0.000000 192.653000 91.190800 -95.904300 88.678100 1.875280 0.848473 15.735700 0.000005 -0.000001 107.057000 85.403700 -106.405000 8.984550 -0.406207 -0.000000 1.008910 2.656890 1.280630 16.377300 -0.000001 -0.000001 5.491270 0.130589 -0.349881 6.456720 -0.000001 -0.000000 -4.635480 -2.556000 1.258890 12.994200 -0.242716 4.980390 -93.488800 8.770220 -68.206000 5.348090 -0.000007 -0.000001 -55.751700 -22.089200 12.211800 24.328600 0.000019 0.000005 6.816490 17.734000 -21.426500 22.291600 -0.000001 0.000005 56.369600 4.382160 18.506900 12.994500 -0.242716 -4.980390 88.513800 3.882830 -69.036700 -5.348130 -0.000001 -0.000004 -69.616800 26.055800 -16.864500 -24.328900 0.000322 -0.000009 2.356330 2.493270 -43.419200 -22.291500 -0.000108 -0.000004 45.265700 5.519720 -7.349970 -2.192480 -6.469440 -0.000000 -179.481000 -1.993730 -20.556300 39.081100 -0.000007 -0.000012 -0.001622 0.022222 4.171660 40.985400 -0.000006 -0.000013 -6.912120 10.212200 -62.371900 11.754300 -0.000000 0.000003 0.002316 0.105825 -12.285300 -2.192510 6.469440 -0.000001 -178.123000 4.984890 -170.359000 -39.081100 -0.002282 -0.040193 -0.009254 0.029278 23.234200 -40.985400 0.000008 0.000006 -0.192919 5.360380 -71.209100 -11.754300 -0.000006 -0.000006 -0.003772 -0.049052 -18.568300
